<svg width="585" height="239" viewBox="0 0 585 239" fill="none" xmlns="http://www.w3.org/2000/svg">
<g filter="url(#filter0_d_15_531)">
<rect x="4.55902" y="0.5" width="575.032" height="223.976" stroke="black"/>
<path d="M36.575 76.488C33.6417 76.488 30.7083 76.2547 27.775 75.788C24.8417 75.388 22.075 74.7547 19.475 73.888C16.875 72.9547 14.5417 71.8213 12.475 70.488C11.275 69.688 10.4417 68.7213 9.97501 67.588C9.50835 66.4547 9.34168 65.3547 9.47501 64.288C9.67501 63.1547 10.1083 62.188 10.775 61.388C11.5083 60.5213 12.4083 59.988 13.475 59.788C14.5417 59.588 15.7083 59.888 16.975 60.688C19.9083 62.4213 23.0083 63.688 26.275 64.488C29.5417 65.288 32.975 65.688 36.575 65.688C41.8417 65.688 45.675 64.8213 48.075 63.088C50.475 61.288 51.675 58.988 51.675 56.188C51.675 53.8547 50.8083 52.0213 49.075 50.688C47.4083 49.3547 44.5083 48.2547 40.375 47.388L29.375 45.088C23.0417 43.7547 18.3083 41.5213 15.175 38.388C12.1083 35.188 10.575 30.988 10.575 25.788C10.575 22.5213 11.2417 19.5547 12.575 16.888C13.9083 14.2213 15.775 11.9213 18.175 9.988C20.6417 8.05467 23.5417 6.588 26.875 5.588C30.275 4.52134 34.0083 3.988 38.075 3.988C42.075 3.988 45.875 4.488 49.475 5.488C53.075 6.488 56.3083 7.95467 59.175 9.888C60.2417 10.6213 60.9417 11.5213 61.275 12.588C61.675 13.6547 61.775 14.7213 61.575 15.788C61.375 16.788 60.9083 17.6547 60.175 18.388C59.4417 19.1213 58.5083 19.5547 57.375 19.688C56.3083 19.8213 55.075 19.488 53.675 18.688C51.2083 17.288 48.7083 16.288 46.175 15.688C43.6417 15.088 40.9083 14.788 37.975 14.788C34.9083 14.788 32.275 15.2213 30.075 16.088C27.875 16.9547 26.175 18.188 24.975 19.788C23.8417 21.3213 23.275 23.1547 23.275 25.288C23.275 27.688 24.075 29.6213 25.675 31.088C27.275 32.488 30.0083 33.588 33.875 34.388L44.775 36.688C51.375 38.088 56.275 40.288 59.475 43.288C62.7417 46.288 64.375 50.288 64.375 55.288C64.375 58.488 63.7083 61.388 62.375 63.988C61.1083 66.588 59.2417 68.8213 56.775 70.688C54.375 72.5547 51.475 73.988 48.075 74.988C44.675 75.988 40.8417 76.488 36.575 76.488ZM104.661 76.488C99.7943 76.488 95.4943 75.8547 91.761 74.588C88.0943 73.3213 84.9943 71.4547 82.4609 68.988C79.9276 66.4547 78.0276 63.3213 76.761 59.588C75.4943 55.8547 74.861 51.5213 74.861 46.588V10.688C74.861 8.488 75.3943 6.85467 76.461 5.788C77.5943 4.72134 79.1943 4.188 81.261 4.188C83.3276 4.188 84.8943 4.72134 85.961 5.788C87.0943 6.85467 87.661 8.488 87.661 10.688V46.488C87.661 52.8213 89.0943 57.588 91.961 60.788C94.8943 63.9213 99.1276 65.488 104.661 65.488C110.194 65.488 114.394 63.9213 117.261 60.788C120.128 57.588 121.561 52.8213 121.561 46.488V10.688C121.561 8.488 122.094 6.85467 123.161 5.788C124.294 4.72134 125.894 4.188 127.961 4.188C129.961 4.188 131.494 4.72134 132.561 5.788C133.694 6.85467 134.261 8.488 134.261 10.688V46.588C134.261 53.1213 133.128 58.6213 130.861 63.088C128.661 67.5547 125.361 70.9213 120.961 73.188C116.561 75.388 111.128 76.488 104.661 76.488ZM155.589 76.288C153.522 76.288 151.922 75.7213 150.789 74.588C149.722 73.388 149.189 71.7547 149.189 69.688V11.488C149.189 9.35467 149.756 7.75467 150.889 6.688C152.022 5.55467 153.622 4.988 155.689 4.988H179.789C187.522 4.988 193.489 6.92134 197.689 10.788C201.889 14.6547 203.989 20.0547 203.989 26.988C203.989 33.9213 201.889 39.3547 197.689 43.288C193.489 47.1547 187.522 49.088 179.789 49.088H161.989V69.688C161.989 71.7547 161.456 73.388 160.389 74.588C159.322 75.7213 157.722 76.288 155.589 76.288ZM161.989 38.988H177.789C182.322 38.988 185.756 37.988 188.089 35.988C190.422 33.9213 191.589 30.9213 191.589 26.988C191.589 23.0547 190.422 20.088 188.089 18.088C185.756 16.088 182.322 15.088 177.789 15.088H161.989V38.988ZM221.223 75.488C219.023 75.488 217.323 74.9213 216.123 73.788C214.99 72.588 214.423 70.888 214.423 68.688V11.788C214.423 9.588 214.99 7.92134 216.123 6.788C217.323 5.588 219.023 4.988 221.223 4.988H256.923C258.59 4.988 259.857 5.42134 260.723 6.288C261.657 7.15467 262.123 8.388 262.123 9.988C262.123 11.6547 261.657 12.9547 260.723 13.888C259.857 14.7547 258.59 15.188 256.923 15.188H226.723V34.588H254.723C256.457 34.588 257.757 35.0213 258.623 35.888C259.49 36.7547 259.923 38.0213 259.923 39.688C259.923 41.3547 259.49 42.6213 258.623 43.488C257.757 44.3547 256.457 44.788 254.723 44.788H226.723V65.288H256.923C258.59 65.288 259.857 65.7213 260.723 66.588C261.657 67.4547 262.123 68.7213 262.123 70.388C262.123 72.0547 261.657 73.3213 260.723 74.188C259.857 75.0547 258.59 75.488 256.923 75.488H221.223ZM280.491 76.288C278.425 76.288 276.825 75.7213 275.691 74.588C274.625 73.388 274.091 71.7547 274.091 69.688V11.488C274.091 9.35467 274.658 7.75467 275.791 6.688C276.925 5.55467 278.525 4.988 280.591 4.988H304.691C312.425 4.988 318.391 6.85467 322.591 10.588C326.791 14.2547 328.891 19.4213 328.891 26.088C328.891 30.4213 327.925 34.1547 325.991 37.288C324.125 40.4213 321.391 42.8213 317.791 44.488C314.191 46.1547 309.825 46.988 304.691 46.988L305.591 45.488H308.891C311.625 45.488 313.991 46.1547 315.991 47.488C318.058 48.8213 319.858 50.9213 321.391 53.788L328.891 67.688C329.691 69.088 330.058 70.4547 329.991 71.788C329.925 73.1213 329.425 74.2213 328.491 75.088C327.558 75.888 326.191 76.288 324.391 76.288C322.591 76.288 321.125 75.9213 319.991 75.188C318.858 74.388 317.858 73.188 316.991 71.588L306.891 52.988C305.691 50.7213 304.258 49.2213 302.591 48.488C300.991 47.688 298.925 47.288 296.391 47.288H286.891V69.688C286.891 71.7547 286.358 73.388 285.291 74.588C284.225 75.7213 282.625 76.288 280.491 76.288ZM286.891 37.788H302.491C307.091 37.788 310.558 36.8547 312.891 34.988C315.291 33.0547 316.491 30.188 316.491 26.388C316.491 22.6547 315.291 19.8547 312.891 17.988C310.558 16.0547 307.091 15.088 302.491 15.088H286.891V37.788ZM366.146 76.288C362.946 76.288 359.846 76.0213 356.846 75.488C353.846 74.9547 351.046 74.1547 348.446 73.088C345.913 71.9547 343.613 70.588 341.546 68.988C340.879 68.5213 340.413 67.988 340.146 67.388C339.946 66.7213 339.913 66.1213 340.046 65.588C340.246 64.988 340.546 64.488 340.946 64.088C341.413 63.688 341.946 63.488 342.546 63.488C343.146 63.4213 343.779 63.6213 344.446 64.088C347.513 66.3547 350.746 68.0213 354.146 69.088C357.613 70.1547 361.613 70.688 366.146 70.688C372.479 70.688 377.213 69.4547 380.346 66.988C383.546 64.5213 385.146 61.288 385.146 57.288C385.146 53.9547 383.979 51.3547 381.646 49.488C379.379 47.6213 375.613 46.1547 370.346 45.088L360.246 42.988C353.913 41.7213 349.213 39.588 346.146 36.588C343.079 33.588 341.546 29.588 341.546 24.588C341.546 21.5213 342.146 18.7547 343.346 16.288C344.546 13.7547 346.246 11.588 348.446 9.78801C350.646 7.98801 353.246 6.62134 356.246 5.68801C359.313 4.688 362.679 4.188 366.346 4.188C370.679 4.188 374.646 4.788 378.246 5.988C381.913 7.188 385.246 9.088 388.246 11.688C388.846 12.1547 389.246 12.7213 389.446 13.388C389.646 13.988 389.646 14.588 389.446 15.188C389.246 15.7213 388.946 16.1547 388.546 16.488C388.146 16.8213 387.646 17.0213 387.046 17.088C386.446 17.088 385.813 16.8213 385.146 16.288C382.346 14.0213 379.413 12.388 376.346 11.388C373.346 10.3213 370.013 9.78801 366.346 9.78801C362.613 9.78801 359.346 10.388 356.546 11.588C353.813 12.788 351.679 14.488 350.146 16.688C348.613 18.888 347.846 21.488 347.846 24.488C347.846 27.9547 348.913 30.7213 351.046 32.788C353.179 34.8547 356.613 36.3547 361.346 37.288L371.546 39.388C378.279 40.788 383.279 42.888 386.546 45.688C389.813 48.4213 391.446 52.188 391.446 56.988C391.446 59.8547 390.846 62.488 389.646 64.888C388.513 67.2213 386.846 69.2547 384.646 70.988C382.446 72.7213 379.779 74.0547 376.646 74.988C373.579 75.8547 370.079 76.288 366.146 76.288ZM402.388 76.088C401.522 76.088 400.822 75.888 400.288 75.488C399.822 75.1547 399.555 74.6547 399.488 73.988C399.488 73.3213 399.655 72.588 399.988 71.788L428.088 7.188C428.555 6.188 429.122 5.488 429.788 5.088C430.455 4.62134 431.122 4.388 431.788 4.388C432.588 4.388 433.288 4.62134 433.888 5.088C434.555 5.488 435.088 6.188 435.488 7.188L463.588 71.788C463.988 72.588 464.155 73.3213 464.088 73.988C464.088 74.6547 463.855 75.1547 463.388 75.488C462.988 75.888 462.355 76.088 461.488 76.088C460.555 76.088 459.788 75.8547 459.188 75.388C458.655 74.8547 458.188 74.1547 457.788 73.288L450.088 55.188L453.388 56.688H410.088L413.488 55.188L405.788 73.288C405.388 74.288 404.888 75.0213 404.288 75.488C403.755 75.888 403.122 76.088 402.388 76.088ZM431.688 12.588L414.688 52.588L412.388 51.388H451.088L448.988 52.588L431.888 12.588H431.688ZM480.156 75.488C479.223 75.488 478.456 75.2213 477.856 74.688C477.323 74.088 477.056 73.288 477.056 72.288V7.688C477.056 6.62134 477.323 5.82134 477.856 5.288C478.39 4.75467 479.123 4.488 480.056 4.488C481.056 4.488 481.823 4.75467 482.356 5.288C482.89 5.82134 483.156 6.62134 483.156 7.688V69.988H517.556C518.556 69.988 519.29 70.2213 519.756 70.688C520.29 71.1547 520.556 71.8213 520.556 72.688C520.556 73.6213 520.29 74.3213 519.756 74.788C519.29 75.2547 518.556 75.488 517.556 75.488H480.156ZM533.972 75.488C532.905 75.488 532.072 75.188 531.472 74.588C530.872 73.988 530.572 73.1213 530.572 71.988V8.488C530.572 7.35467 530.872 6.488 531.472 5.888C532.072 5.288 532.905 4.988 533.972 4.988H571.772C572.705 4.988 573.405 5.22134 573.872 5.68801C574.339 6.15467 574.572 6.788 574.572 7.588C574.572 8.52134 574.339 9.22134 573.872 9.688C573.405 10.088 572.705 10.288 571.772 10.288H536.572V37.088H569.772C570.705 37.088 571.405 37.3213 571.872 37.788C572.339 38.188 572.572 38.8213 572.572 39.688C572.572 40.5547 572.339 41.2213 571.872 41.688C571.405 42.1547 570.705 42.388 569.772 42.388H536.572V70.188H571.772C572.705 70.188 573.405 70.4213 573.872 70.888C574.339 71.288 574.572 71.9213 574.572 72.788C574.572 73.6547 574.339 74.3213 573.872 74.788C573.405 75.2547 572.705 75.488 571.772 75.488H533.972Z" fill="black"/>
<path d="M5.60001 147.688C5.08335 147.688 4.68335 147.546 4.40001 147.263C4.13335 146.963 4.00001 146.555 4.00001 146.038V131.313C4.00001 130.78 4.13335 130.371 4.40001 130.088C4.68335 129.805 5.08335 129.663 5.60001 129.663C6.11668 129.663 6.50835 129.805 6.77501 130.088C7.05835 130.371 7.20001 130.78 7.20001 131.313V146.038C7.20001 146.555 7.06668 146.963 6.80001 147.263C6.53335 147.546 6.13335 147.688 5.60001 147.688ZM24.4057 147.688C23.889 147.688 23.489 147.546 23.2057 147.263C22.939 146.963 22.8057 146.555 22.8057 146.038V132.538H17.9307C17.4973 132.538 17.1557 132.421 16.9057 132.188C16.6723 131.938 16.5557 131.605 16.5557 131.188C16.5557 130.755 16.6723 130.43 16.9057 130.213C17.1557 129.98 17.4973 129.863 17.9307 129.863H30.8807C31.314 129.863 31.6473 129.98 31.8807 130.213C32.1307 130.43 32.2557 130.755 32.2557 131.188C32.2557 131.605 32.1307 131.938 31.8807 132.188C31.6473 132.421 31.314 132.538 30.8807 132.538H26.0057V146.038C26.0057 146.555 25.8723 146.963 25.6057 147.263C25.339 147.546 24.939 147.688 24.4057 147.688ZM43.283 147.488C42.733 147.488 42.308 147.346 42.008 147.063C41.7247 146.763 41.583 146.338 41.583 145.788V131.563C41.583 131.013 41.7247 130.596 42.008 130.313C42.308 130.013 42.733 129.863 43.283 129.863H52.208C52.6247 129.863 52.9414 129.971 53.158 130.188C53.3914 130.405 53.508 130.713 53.508 131.113C53.508 131.53 53.3914 131.855 53.158 132.088C52.9414 132.305 52.6247 132.413 52.208 132.413H44.658V137.263H51.658C52.0914 137.263 52.4164 137.371 52.633 137.588C52.8497 137.805 52.958 138.121 52.958 138.538C52.958 138.955 52.8497 139.271 52.633 139.488C52.4164 139.705 52.0914 139.813 51.658 139.813H44.658V144.938H52.208C52.6247 144.938 52.9414 145.046 53.158 145.263C53.3914 145.48 53.508 145.796 53.508 146.213C53.508 146.63 53.3914 146.946 53.158 147.163C52.9414 147.38 52.6247 147.488 52.208 147.488H43.283ZM65.5 147.688C65.0167 147.688 64.6417 147.555 64.375 147.288C64.125 147.021 64 146.638 64 146.138V131.263C64 130.746 64.125 130.355 64.375 130.088C64.6417 129.805 64.9833 129.663 65.4 129.663C65.7833 129.663 66.0667 129.738 66.25 129.888C66.45 130.021 66.6833 130.255 66.95 130.588L76.525 143.013H75.875V131.188C75.875 130.705 76 130.33 76.25 130.063C76.5167 129.796 76.8917 129.663 77.375 129.663C77.8583 129.663 78.225 129.796 78.475 130.063C78.725 130.33 78.85 130.705 78.85 131.188V146.188C78.85 146.655 78.7333 147.021 78.5 147.288C78.2667 147.555 77.95 147.688 77.55 147.688C77.1667 147.688 76.8583 147.613 76.625 147.463C76.4083 147.313 76.1667 147.071 75.9 146.738L66.35 134.313H66.975V146.138C66.975 146.638 66.85 147.021 66.6 147.288C66.35 147.555 65.9833 147.688 65.5 147.688ZM96.2762 147.738C95.5429 147.738 94.8095 147.68 94.0762 147.563C93.3429 147.463 92.6512 147.305 92.0012 147.088C91.3512 146.855 90.7679 146.571 90.2512 146.238C89.9512 146.038 89.7429 145.796 89.6262 145.513C89.5095 145.23 89.4679 144.955 89.5012 144.688C89.5512 144.405 89.6595 144.163 89.8262 143.963C90.0095 143.746 90.2345 143.613 90.5012 143.563C90.7679 143.513 91.0595 143.588 91.3762 143.788C92.1095 144.221 92.8845 144.538 93.7012 144.738C94.5179 144.938 95.3762 145.038 96.2762 145.038C97.5929 145.038 98.5512 144.821 99.1512 144.388C99.7512 143.938 100.051 143.363 100.051 142.663C100.051 142.08 99.8345 141.621 99.4012 141.288C98.9845 140.955 98.2595 140.68 97.2262 140.463L94.4762 139.888C92.8929 139.555 91.7095 138.996 90.9262 138.213C90.1595 137.413 89.7762 136.363 89.7762 135.063C89.7762 134.246 89.9429 133.505 90.2762 132.838C90.6095 132.171 91.0762 131.596 91.6762 131.113C92.2929 130.63 93.0179 130.263 93.8512 130.013C94.7012 129.746 95.6345 129.613 96.6512 129.613C97.6512 129.613 98.6012 129.738 99.5012 129.988C100.401 130.238 101.21 130.605 101.926 131.088C102.193 131.271 102.368 131.496 102.451 131.763C102.551 132.03 102.576 132.296 102.526 132.563C102.476 132.813 102.36 133.03 102.176 133.213C101.993 133.396 101.76 133.505 101.476 133.538C101.21 133.571 100.901 133.488 100.551 133.288C99.9345 132.938 99.3095 132.688 98.6762 132.538C98.0429 132.388 97.3595 132.313 96.6262 132.313C95.8595 132.313 95.2012 132.421 94.6512 132.638C94.1012 132.855 93.6762 133.163 93.3762 133.563C93.0929 133.946 92.9512 134.405 92.9512 134.938C92.9512 135.538 93.1512 136.021 93.5512 136.388C93.9512 136.738 94.6345 137.013 95.6012 137.213L98.3262 137.788C99.9762 138.138 101.201 138.688 102.001 139.438C102.818 140.188 103.226 141.188 103.226 142.438C103.226 143.238 103.06 143.963 102.726 144.613C102.41 145.263 101.943 145.821 101.326 146.288C100.726 146.755 100.001 147.113 99.1512 147.363C98.3012 147.613 97.3429 147.738 96.2762 147.738ZM133.835 147.738C133.101 147.738 132.368 147.68 131.635 147.563C130.901 147.463 130.21 147.305 129.56 147.088C128.91 146.855 128.326 146.571 127.81 146.238C127.51 146.038 127.301 145.796 127.185 145.513C127.068 145.23 127.026 144.955 127.06 144.688C127.11 144.405 127.218 144.163 127.385 143.963C127.568 143.746 127.793 143.613 128.06 143.563C128.326 143.513 128.618 143.588 128.935 143.788C129.668 144.221 130.443 144.538 131.26 144.738C132.076 144.938 132.935 145.038 133.835 145.038C135.151 145.038 136.11 144.821 136.71 144.388C137.31 143.938 137.61 143.363 137.61 142.663C137.61 142.08 137.393 141.621 136.96 141.288C136.543 140.955 135.818 140.68 134.785 140.463L132.035 139.888C130.451 139.555 129.268 138.996 128.485 138.213C127.718 137.413 127.335 136.363 127.335 135.063C127.335 134.246 127.501 133.505 127.835 132.838C128.168 132.171 128.635 131.596 129.235 131.113C129.851 130.63 130.576 130.263 131.41 130.013C132.26 129.746 133.193 129.613 134.21 129.613C135.21 129.613 136.16 129.738 137.06 129.988C137.96 130.238 138.768 130.605 139.485 131.088C139.751 131.271 139.926 131.496 140.01 131.763C140.11 132.03 140.135 132.296 140.085 132.563C140.035 132.813 139.918 133.03 139.735 133.213C139.551 133.396 139.318 133.505 139.035 133.538C138.768 133.571 138.46 133.488 138.11 133.288C137.493 132.938 136.868 132.688 136.235 132.538C135.601 132.388 134.918 132.313 134.185 132.313C133.418 132.313 132.76 132.421 132.21 132.638C131.66 132.855 131.235 133.163 130.935 133.563C130.651 133.946 130.51 134.405 130.51 134.938C130.51 135.538 130.71 136.021 131.11 136.388C131.51 136.738 132.193 137.013 133.16 137.213L135.885 137.788C137.535 138.138 138.76 138.688 139.56 139.438C140.376 140.188 140.785 141.188 140.785 142.438C140.785 143.238 140.618 143.963 140.285 144.613C139.968 145.263 139.501 145.821 138.885 146.288C138.285 146.755 137.56 147.113 136.71 147.363C135.86 147.613 134.901 147.738 133.835 147.738ZM152.731 147.488C152.181 147.488 151.756 147.346 151.456 147.063C151.173 146.763 151.031 146.338 151.031 145.788V131.563C151.031 131.013 151.173 130.596 151.456 130.313C151.756 130.013 152.181 129.863 152.731 129.863H161.656C162.073 129.863 162.39 129.971 162.606 130.188C162.84 130.405 162.956 130.713 162.956 131.113C162.956 131.53 162.84 131.855 162.606 132.088C162.39 132.305 162.073 132.413 161.656 132.413H154.106V137.263H161.106C161.54 137.263 161.865 137.371 162.081 137.588C162.298 137.805 162.406 138.121 162.406 138.538C162.406 138.955 162.298 139.271 162.081 139.488C161.865 139.705 161.54 139.813 161.106 139.813H154.106V144.938H161.656C162.073 144.938 162.39 145.046 162.606 145.263C162.84 145.48 162.956 145.796 162.956 146.213C162.956 146.63 162.84 146.946 162.606 147.163C162.39 147.38 162.073 147.488 161.656 147.488H152.731ZM175.073 147.488C174.557 147.488 174.157 147.346 173.873 147.063C173.59 146.763 173.448 146.355 173.448 145.838V131.413C173.448 130.88 173.582 130.48 173.848 130.213C174.132 129.93 174.532 129.788 175.048 129.788C175.565 129.788 175.957 129.93 176.223 130.213C176.507 130.48 176.648 130.88 176.648 131.413V144.763H183.898C184.348 144.763 184.69 144.88 184.923 145.113C185.173 145.346 185.298 145.68 185.298 146.113C185.298 146.546 185.173 146.888 184.923 147.138C184.69 147.371 184.348 147.488 183.898 147.488H175.073ZM196.686 147.488C196.136 147.488 195.711 147.346 195.411 147.063C195.128 146.763 194.986 146.338 194.986 145.788V131.563C194.986 131.013 195.128 130.596 195.411 130.313C195.711 130.013 196.136 129.863 196.686 129.863H205.611C206.028 129.863 206.345 129.971 206.561 130.188C206.795 130.405 206.911 130.713 206.911 131.113C206.911 131.53 206.795 131.855 206.561 132.088C206.345 132.305 206.028 132.413 205.611 132.413H198.061V137.263H205.061C205.495 137.263 205.82 137.371 206.036 137.588C206.253 137.805 206.361 138.121 206.361 138.538C206.361 138.955 206.253 139.271 206.036 139.488C205.82 139.705 205.495 139.813 205.061 139.813H198.061V144.938H205.611C206.028 144.938 206.345 145.046 206.561 145.263C206.795 145.48 206.911 145.796 206.911 146.213C206.911 146.63 206.795 146.946 206.561 147.163C206.345 147.38 206.028 147.488 205.611 147.488H196.686ZM225.579 147.738C223.746 147.738 222.171 147.371 220.854 146.638C219.554 145.888 218.554 144.838 217.854 143.488C217.154 142.121 216.804 140.513 216.804 138.663C216.804 137.28 217.004 136.038 217.404 134.938C217.804 133.821 218.379 132.871 219.129 132.088C219.879 131.288 220.796 130.68 221.879 130.263C222.979 129.83 224.212 129.613 225.579 129.613C226.496 129.613 227.396 129.73 228.279 129.963C229.162 130.196 229.937 130.53 230.604 130.963C230.954 131.18 231.187 131.446 231.304 131.763C231.421 132.063 231.446 132.363 231.379 132.663C231.312 132.946 231.171 133.188 230.954 133.388C230.754 133.588 230.496 133.705 230.179 133.738C229.879 133.755 229.546 133.646 229.179 133.413C228.662 133.08 228.104 132.838 227.504 132.688C226.904 132.538 226.296 132.463 225.679 132.463C224.496 132.463 223.496 132.705 222.679 133.188C221.862 133.671 221.246 134.371 220.829 135.288C220.412 136.205 220.204 137.33 220.204 138.663C220.204 139.98 220.412 141.105 220.829 142.038C221.246 142.971 221.862 143.68 222.679 144.163C223.496 144.646 224.496 144.888 225.679 144.888C226.312 144.888 226.937 144.813 227.554 144.663C228.171 144.496 228.754 144.246 229.304 143.913C229.671 143.696 229.996 143.605 230.279 143.638C230.579 143.655 230.829 143.755 231.029 143.938C231.229 144.121 231.362 144.355 231.429 144.638C231.496 144.905 231.479 145.188 231.379 145.488C231.279 145.771 231.079 146.021 230.779 146.238C230.112 146.721 229.312 147.096 228.379 147.363C227.462 147.613 226.529 147.738 225.579 147.738ZM243.471 147.688C242.954 147.688 242.554 147.546 242.271 147.263C242.004 146.963 241.871 146.555 241.871 146.038V131.313C241.871 130.78 242.004 130.371 242.271 130.088C242.554 129.805 242.954 129.663 243.471 129.663C243.988 129.663 244.379 129.805 244.646 130.088C244.929 130.371 245.071 130.78 245.071 131.313V146.038C245.071 146.555 244.938 146.963 244.671 147.263C244.404 147.546 244.004 147.688 243.471 147.688ZM264.327 147.738C262.627 147.738 261.135 147.363 259.852 146.613C258.585 145.863 257.602 144.813 256.902 143.463C256.202 142.096 255.852 140.496 255.852 138.663C255.852 137.28 256.052 136.038 256.452 134.938C256.852 133.821 257.418 132.871 258.152 132.088C258.902 131.288 259.793 130.68 260.827 130.263C261.877 129.83 263.043 129.613 264.327 129.613C266.043 129.613 267.535 129.988 268.802 130.738C270.068 131.471 271.052 132.513 271.752 133.863C272.452 135.213 272.802 136.805 272.802 138.638C272.802 140.021 272.602 141.271 272.202 142.388C271.802 143.505 271.227 144.463 270.477 145.263C269.743 146.063 268.852 146.68 267.802 147.113C266.768 147.53 265.61 147.738 264.327 147.738ZM264.327 144.988C265.41 144.988 266.327 144.738 267.077 144.238C267.843 143.738 268.427 143.013 268.827 142.063C269.243 141.113 269.452 139.98 269.452 138.663C269.452 136.663 269.002 135.113 268.102 134.013C267.218 132.913 265.96 132.363 264.327 132.363C263.26 132.363 262.343 132.613 261.577 133.113C260.81 133.596 260.218 134.313 259.802 135.263C259.402 136.196 259.202 137.33 259.202 138.663C259.202 140.646 259.652 142.196 260.552 143.313C261.452 144.43 262.71 144.988 264.327 144.988ZM285.056 147.688C284.572 147.688 284.197 147.555 283.931 147.288C283.681 147.021 283.556 146.638 283.556 146.138V131.263C283.556 130.746 283.681 130.355 283.931 130.088C284.197 129.805 284.539 129.663 284.956 129.663C285.339 129.663 285.622 129.738 285.806 129.888C286.006 130.021 286.239 130.255 286.506 130.588L296.081 143.013H295.431V131.188C295.431 130.705 295.556 130.33 295.806 130.063C296.072 129.796 296.447 129.663 296.931 129.663C297.414 129.663 297.781 129.796 298.031 130.063C298.281 130.33 298.406 130.705 298.406 131.188V146.188C298.406 146.655 298.289 147.021 298.056 147.288C297.822 147.555 297.506 147.688 297.106 147.688C296.722 147.688 296.414 147.613 296.181 147.463C295.964 147.313 295.722 147.071 295.456 146.738L285.906 134.313H286.531V146.138C286.531 146.638 286.406 147.021 286.156 147.288C285.906 147.555 285.539 147.688 285.056 147.688ZM309.932 147.688C309.532 147.688 309.207 147.596 308.957 147.413C308.724 147.23 308.582 146.988 308.532 146.688C308.482 146.371 308.54 146.021 308.707 145.638L315.307 131.013C315.524 130.53 315.782 130.188 316.082 129.988C316.399 129.771 316.757 129.663 317.157 129.663C317.54 129.663 317.882 129.771 318.182 129.988C318.499 130.188 318.765 130.53 318.982 131.013L325.607 145.638C325.79 146.021 325.857 146.371 325.807 146.688C325.757 147.005 325.615 147.255 325.382 147.438C325.149 147.605 324.84 147.688 324.457 147.688C323.99 147.688 323.624 147.58 323.357 147.363C323.107 147.13 322.882 146.78 322.682 146.313L321.057 142.538L322.407 143.413H311.857L313.207 142.538L311.607 146.313C311.39 146.796 311.165 147.146 310.932 147.363C310.699 147.58 310.365 147.688 309.932 147.688ZM317.107 133.338L313.607 141.663L312.957 140.863H321.307L320.682 141.663L317.157 133.338H317.107ZM337.56 147.488C337.01 147.488 336.585 147.346 336.285 147.063C336.002 146.763 335.86 146.338 335.86 145.788V131.563C335.86 131.013 336.002 130.596 336.285 130.313C336.585 130.013 337.01 129.863 337.56 129.863H342.41C345.36 129.863 347.635 130.621 349.235 132.138C350.852 133.655 351.66 135.83 351.66 138.663C351.66 140.08 351.452 141.338 351.035 142.438C350.635 143.521 350.035 144.438 349.235 145.188C348.452 145.938 347.485 146.513 346.335 146.913C345.202 147.296 343.894 147.488 342.41 147.488H337.56ZM339.06 144.838H342.21C343.244 144.838 344.135 144.713 344.885 144.463C345.652 144.196 346.285 143.813 346.785 143.313C347.302 142.796 347.685 142.155 347.935 141.388C348.185 140.605 348.31 139.696 348.31 138.663C348.31 136.596 347.802 135.055 346.785 134.038C345.769 133.021 344.244 132.513 342.21 132.513H339.06V144.838ZM370.303 147.738C368.603 147.738 367.112 147.363 365.828 146.613C364.562 145.863 363.578 144.813 362.878 143.463C362.178 142.096 361.828 140.496 361.828 138.663C361.828 137.28 362.028 136.038 362.428 134.938C362.828 133.821 363.395 132.871 364.128 132.088C364.878 131.288 365.77 130.68 366.803 130.263C367.853 129.83 369.02 129.613 370.303 129.613C372.02 129.613 373.512 129.988 374.778 130.738C376.045 131.471 377.028 132.513 377.728 133.863C378.428 135.213 378.778 136.805 378.778 138.638C378.778 140.021 378.578 141.271 378.178 142.388C377.778 143.505 377.203 144.463 376.453 145.263C375.72 146.063 374.828 146.68 373.778 147.113C372.745 147.53 371.587 147.738 370.303 147.738ZM370.303 144.988C371.387 144.988 372.303 144.738 373.053 144.238C373.82 143.738 374.403 143.013 374.803 142.063C375.22 141.113 375.428 139.98 375.428 138.663C375.428 136.663 374.978 135.113 374.078 134.013C373.195 132.913 371.937 132.363 370.303 132.363C369.237 132.363 368.32 132.613 367.553 133.113C366.787 133.596 366.195 134.313 365.778 135.263C365.378 136.196 365.178 137.33 365.178 138.663C365.178 140.646 365.628 142.196 366.528 143.313C367.428 144.43 368.687 144.988 370.303 144.988ZM395.607 147.738C394.874 147.738 394.141 147.68 393.407 147.563C392.674 147.463 391.982 147.305 391.332 147.088C390.682 146.855 390.099 146.571 389.582 146.238C389.282 146.038 389.074 145.796 388.957 145.513C388.841 145.23 388.799 144.955 388.832 144.688C388.882 144.405 388.991 144.163 389.157 143.963C389.341 143.746 389.566 143.613 389.832 143.563C390.099 143.513 390.391 143.588 390.707 143.788C391.441 144.221 392.216 144.538 393.032 144.738C393.849 144.938 394.707 145.038 395.607 145.038C396.924 145.038 397.882 144.821 398.482 144.388C399.082 143.938 399.382 143.363 399.382 142.663C399.382 142.08 399.166 141.621 398.732 141.288C398.316 140.955 397.591 140.68 396.557 140.463L393.807 139.888C392.224 139.555 391.041 138.996 390.257 138.213C389.491 137.413 389.107 136.363 389.107 135.063C389.107 134.246 389.274 133.505 389.607 132.838C389.941 132.171 390.407 131.596 391.007 131.113C391.624 130.63 392.349 130.263 393.182 130.013C394.032 129.746 394.966 129.613 395.982 129.613C396.982 129.613 397.932 129.738 398.832 129.988C399.732 130.238 400.541 130.605 401.257 131.088C401.524 131.271 401.699 131.496 401.782 131.763C401.882 132.03 401.907 132.296 401.857 132.563C401.807 132.813 401.691 133.03 401.507 133.213C401.324 133.396 401.091 133.505 400.807 133.538C400.541 133.571 400.232 133.488 399.882 133.288C399.266 132.938 398.641 132.688 398.007 132.538C397.374 132.388 396.691 132.313 395.957 132.313C395.191 132.313 394.532 132.421 393.982 132.638C393.432 132.855 393.007 133.163 392.707 133.563C392.424 133.946 392.282 134.405 392.282 134.938C392.282 135.538 392.482 136.021 392.882 136.388C393.282 136.738 393.966 137.013 394.932 137.213L397.657 137.788C399.307 138.138 400.532 138.688 401.332 139.438C402.149 140.188 402.557 141.188 402.557 142.438C402.557 143.238 402.391 143.963 402.057 144.613C401.741 145.263 401.274 145.821 400.657 146.288C400.057 146.755 399.332 147.113 398.482 147.363C397.632 147.613 396.674 147.738 395.607 147.738ZM435.291 147.738C433.457 147.738 431.882 147.371 430.566 146.638C429.266 145.888 428.266 144.838 427.566 143.488C426.866 142.121 426.516 140.513 426.516 138.663C426.516 137.28 426.716 136.038 427.116 134.938C427.516 133.821 428.091 132.871 428.841 132.088C429.591 131.288 430.507 130.68 431.591 130.263C432.691 129.83 433.924 129.613 435.291 129.613C436.207 129.613 437.107 129.73 437.991 129.963C438.874 130.196 439.649 130.53 440.316 130.963C440.666 131.18 440.899 131.446 441.016 131.763C441.132 132.063 441.157 132.363 441.091 132.663C441.024 132.946 440.882 133.188 440.666 133.388C440.466 133.588 440.208 133.705 439.891 133.738C439.591 133.755 439.258 133.646 438.891 133.413C438.374 133.08 437.816 132.838 437.216 132.688C436.616 132.538 436.007 132.463 435.391 132.463C434.207 132.463 433.207 132.705 432.391 133.188C431.574 133.671 430.957 134.371 430.541 135.288C430.124 136.205 429.916 137.33 429.916 138.663C429.916 139.98 430.124 141.105 430.541 142.038C430.957 142.971 431.574 143.68 432.391 144.163C433.207 144.646 434.207 144.888 435.391 144.888C436.024 144.888 436.649 144.813 437.266 144.663C437.882 144.496 438.466 144.246 439.016 143.913C439.382 143.696 439.708 143.605 439.991 143.638C440.291 143.655 440.541 143.755 440.741 143.938C440.941 144.121 441.074 144.355 441.141 144.638C441.207 144.905 441.191 145.188 441.091 145.488C440.991 145.771 440.791 146.021 440.491 146.238C439.824 146.721 439.024 147.096 438.091 147.363C437.174 147.613 436.241 147.738 435.291 147.738ZM458.921 147.738C457.221 147.738 455.73 147.363 454.446 146.613C453.18 145.863 452.196 144.813 451.496 143.463C450.796 142.096 450.446 140.496 450.446 138.663C450.446 137.28 450.646 136.038 451.046 134.938C451.446 133.821 452.013 132.871 452.746 132.088C453.496 131.288 454.388 130.68 455.421 130.263C456.471 129.83 457.638 129.613 458.921 129.613C460.638 129.613 462.13 129.988 463.396 130.738C464.663 131.471 465.646 132.513 466.346 133.863C467.046 135.213 467.396 136.805 467.396 138.638C467.396 140.021 467.196 141.271 466.796 142.388C466.396 143.505 465.821 144.463 465.071 145.263C464.338 146.063 463.446 146.68 462.396 147.113C461.363 147.53 460.205 147.738 458.921 147.738ZM458.921 144.988C460.005 144.988 460.921 144.738 461.671 144.238C462.438 143.738 463.021 143.013 463.421 142.063C463.838 141.113 464.046 139.98 464.046 138.663C464.046 136.663 463.596 135.113 462.696 134.013C461.813 132.913 460.555 132.363 458.921 132.363C457.855 132.363 456.938 132.613 456.171 133.113C455.405 133.596 454.813 134.313 454.396 135.263C453.996 136.196 453.796 137.33 453.796 138.663C453.796 140.646 454.246 142.196 455.146 143.313C456.046 144.43 457.305 144.988 458.921 144.988ZM479.65 147.688C479.184 147.688 478.825 147.555 478.575 147.288C478.325 147.021 478.2 146.655 478.2 146.188V131.163C478.2 130.68 478.334 130.313 478.6 130.063C478.867 129.796 479.234 129.663 479.7 129.663C480.117 129.663 480.442 129.746 480.675 129.913C480.925 130.063 481.15 130.33 481.35 130.713L487.525 142.138H486.725L492.9 130.713C493.1 130.33 493.317 130.063 493.55 129.913C493.784 129.746 494.109 129.663 494.525 129.663C494.992 129.663 495.35 129.796 495.6 130.063C495.85 130.313 495.975 130.68 495.975 131.163V146.188C495.975 146.655 495.85 147.021 495.6 147.288C495.367 147.555 495.009 147.688 494.525 147.688C494.059 147.688 493.7 147.555 493.45 147.288C493.2 147.021 493.075 146.655 493.075 146.188V134.613H493.625L488.375 144.188C488.209 144.471 488.034 144.68 487.85 144.813C487.667 144.946 487.417 145.013 487.1 145.013C486.784 145.013 486.525 144.946 486.325 144.813C486.125 144.663 485.95 144.455 485.8 144.188L480.5 134.588H481.1V146.188C481.1 146.655 480.975 147.021 480.725 147.288C480.492 147.555 480.134 147.688 479.65 147.688ZM521.817 147.688C521.417 147.688 521.092 147.596 520.842 147.413C520.608 147.23 520.467 146.988 520.417 146.688C520.367 146.371 520.425 146.021 520.592 145.638L527.192 131.013C527.408 130.53 527.667 130.188 527.967 129.988C528.283 129.771 528.642 129.663 529.042 129.663C529.425 129.663 529.767 129.771 530.067 129.988C530.383 130.188 530.65 130.53 530.867 131.013L537.492 145.638C537.675 146.021 537.742 146.371 537.692 146.688C537.642 147.005 537.5 147.255 537.267 147.438C537.033 147.605 536.725 147.688 536.342 147.688C535.875 147.688 535.508 147.58 535.242 147.363C534.992 147.13 534.767 146.78 534.567 146.313L532.942 142.538L534.292 143.413H523.742L525.092 142.538L523.492 146.313C523.275 146.796 523.05 147.146 522.817 147.363C522.583 147.58 522.25 147.688 521.817 147.688ZM528.992 133.338L525.492 141.663L524.842 140.863H533.192L532.567 141.663L529.042 133.338H528.992ZM551.642 147.688C551.125 147.688 550.725 147.546 550.442 147.263C550.175 146.963 550.042 146.555 550.042 146.038V132.538H545.167C544.734 132.538 544.392 132.421 544.142 132.188C543.909 131.938 543.792 131.605 543.792 131.188C543.792 130.755 543.909 130.43 544.142 130.213C544.392 129.98 544.734 129.863 545.167 129.863H558.117C558.55 129.863 558.884 129.98 559.117 130.213C559.367 130.43 559.492 130.755 559.492 131.188C559.492 131.605 559.367 131.938 559.117 132.188C558.884 132.421 558.55 132.538 558.117 132.538H553.242V146.038C553.242 146.555 553.109 146.963 552.842 147.263C552.575 147.546 552.175 147.688 551.642 147.688ZM570.519 147.488C569.969 147.488 569.544 147.346 569.244 147.063C568.961 146.763 568.819 146.338 568.819 145.788V131.563C568.819 131.013 568.961 130.596 569.244 130.313C569.544 130.013 569.969 129.863 570.519 129.863H579.444C579.861 129.863 580.178 129.971 580.394 130.188C580.628 130.405 580.744 130.713 580.744 131.113C580.744 131.53 580.628 131.855 580.394 132.088C580.178 132.305 579.861 132.413 579.444 132.413H571.894V137.263H578.894C579.328 137.263 579.653 137.371 579.869 137.588C580.086 137.805 580.194 138.121 580.194 138.538C580.194 138.955 580.086 139.271 579.869 139.488C579.653 139.705 579.328 139.813 578.894 139.813H571.894V144.938H579.444C579.861 144.938 580.178 145.046 580.394 145.263C580.628 145.48 580.744 145.796 580.744 146.213C580.744 146.63 580.628 146.946 580.394 147.163C580.178 147.38 579.861 147.488 579.444 147.488H570.519ZM576.369 128.213C576.169 128.43 575.944 128.546 575.694 128.563C575.461 128.563 575.244 128.496 575.044 128.363C574.861 128.213 574.736 128.03 574.669 127.813C574.619 127.596 574.669 127.371 574.819 127.138L576.769 124.263C576.953 123.98 577.169 123.813 577.419 123.763C577.686 123.696 577.944 123.713 578.194 123.813C578.444 123.896 578.644 124.038 578.794 124.238C578.961 124.421 579.053 124.638 579.069 124.888C579.086 125.121 578.986 125.355 578.769 125.588L576.369 128.213Z" fill="#005CFF"/>
<path d="M188.435 230.088C186.315 230.088 184.155 229.808 181.955 229.248C179.755 228.688 177.735 227.828 175.895 226.668C175.135 226.188 174.615 225.628 174.335 224.988C174.095 224.308 174.035 223.648 174.155 223.008C174.315 222.328 174.615 221.768 175.055 221.328C175.535 220.848 176.095 220.568 176.735 220.488C177.415 220.408 178.155 220.588 178.955 221.028C180.435 221.868 181.935 222.508 183.455 222.948C184.975 223.388 186.595 223.608 188.315 223.608C189.995 223.608 191.435 223.308 192.635 222.708C193.835 222.108 194.755 221.268 195.395 220.188C196.035 219.108 196.355 217.848 196.355 216.408C196.355 214.168 195.675 212.368 194.315 211.008C192.955 209.608 191.095 208.908 188.735 208.908C187.455 208.908 186.215 209.128 185.015 209.568C183.815 209.968 182.635 210.688 181.475 211.728C181.115 212.048 180.655 212.368 180.095 212.688C179.535 212.968 178.935 213.108 178.295 213.108C177.295 213.108 176.535 212.848 176.015 212.328C175.495 211.808 175.235 211.088 175.235 210.168V190.548C175.235 189.468 175.515 188.648 176.075 188.088C176.675 187.488 177.515 187.188 178.595 187.188H198.335C199.415 187.188 200.235 187.468 200.795 188.028C201.395 188.548 201.695 189.328 201.695 190.368C201.695 191.368 201.395 192.148 200.795 192.708C200.235 193.268 199.415 193.548 198.335 193.548H182.735V206.988H180.755C181.795 205.588 183.175 204.508 184.895 203.748C186.615 202.988 188.495 202.608 190.535 202.608C193.215 202.608 195.535 203.188 197.495 204.348C199.495 205.468 201.035 207.048 202.115 209.088C203.235 211.088 203.795 213.428 203.795 216.108C203.795 218.868 203.175 221.308 201.935 223.428C200.695 225.508 198.915 227.148 196.595 228.348C194.315 229.508 191.595 230.088 188.435 230.088ZM224.052 230.088C219.052 230.088 215.232 228.208 212.592 224.448C209.952 220.648 208.632 215.248 208.632 208.248C208.632 203.528 209.212 199.568 210.372 196.368C211.572 193.128 213.312 190.688 215.592 189.048C217.912 187.408 220.732 186.588 224.052 186.588C229.092 186.588 232.912 188.428 235.512 192.108C238.152 195.788 239.472 201.148 239.472 208.188C239.472 212.868 238.872 216.848 237.672 220.128C236.512 223.368 234.792 225.848 232.512 227.568C230.232 229.248 227.412 230.088 224.052 230.088ZM224.052 223.788C226.772 223.788 228.772 222.528 230.052 220.008C231.372 217.488 232.032 213.548 232.032 208.188C232.032 202.828 231.372 198.948 230.052 196.548C228.772 194.108 226.772 192.888 224.052 192.888C221.372 192.888 219.372 194.108 218.052 196.548C216.732 198.948 216.072 202.828 216.072 208.188C216.072 213.548 216.732 217.488 218.052 220.008C219.372 222.528 221.372 223.788 224.052 223.788ZM261.768 229.008C261.368 229.728 260.868 230.188 260.268 230.388C259.708 230.628 259.128 230.668 258.528 230.508C257.968 230.388 257.488 230.108 257.088 229.668C256.688 229.268 256.448 228.768 256.368 228.168C256.288 227.528 256.448 226.848 256.848 226.128L278.988 187.728C279.388 187.008 279.868 186.528 280.428 186.288C281.028 186.048 281.608 186.008 282.168 186.168C282.728 186.288 283.208 186.568 283.608 187.008C284.008 187.448 284.248 187.988 284.328 188.628C284.448 189.228 284.308 189.868 283.908 190.548L261.768 229.008ZM255.348 212.448C251.988 212.448 249.368 211.288 247.488 208.968C245.608 206.648 244.668 203.488 244.668 199.488C244.668 196.808 245.088 194.508 245.928 192.588C246.768 190.668 247.988 189.188 249.588 188.148C251.188 187.108 253.108 186.588 255.348 186.588C258.708 186.588 261.328 187.748 263.208 190.068C265.088 192.348 266.028 195.488 266.028 199.488C266.028 202.168 265.608 204.488 264.768 206.448C263.928 208.368 262.708 209.848 261.108 210.888C259.508 211.928 257.588 212.448 255.348 212.448ZM255.348 207.408C256.308 207.408 257.128 207.128 257.808 206.568C258.488 205.968 259.008 205.088 259.368 203.928C259.728 202.768 259.908 201.288 259.908 199.488C259.908 196.808 259.508 194.828 258.708 193.548C257.908 192.268 256.788 191.628 255.348 191.628C254.388 191.628 253.568 191.908 252.888 192.468C252.208 193.028 251.688 193.888 251.328 195.048C250.968 196.208 250.788 197.688 250.788 199.488C250.788 202.208 251.188 204.208 251.988 205.488C252.788 206.768 253.908 207.408 255.348 207.408ZM285.468 230.088C282.108 230.088 279.488 228.928 277.608 226.608C275.728 224.288 274.788 221.128 274.788 217.128C274.788 214.448 275.208 212.148 276.048 210.228C276.888 208.308 278.108 206.828 279.708 205.788C281.308 204.748 283.228 204.228 285.468 204.228C288.828 204.228 291.448 205.388 293.328 207.708C295.208 209.988 296.148 213.128 296.148 217.128C296.148 219.808 295.728 222.128 294.888 224.088C294.048 226.008 292.828 227.488 291.228 228.528C289.628 229.568 287.708 230.088 285.468 230.088ZM285.468 225.048C286.428 225.048 287.248 224.768 287.928 224.208C288.608 223.648 289.128 222.788 289.488 221.628C289.848 220.428 290.028 218.928 290.028 217.128C290.028 214.448 289.628 212.468 288.828 211.188C288.028 209.908 286.908 209.268 285.468 209.268C284.508 209.268 283.688 209.548 283.008 210.108C282.328 210.668 281.808 211.528 281.448 212.688C281.088 213.848 280.908 215.328 280.908 217.128C280.908 219.848 281.308 221.848 282.108 223.128C282.908 224.408 284.028 225.048 285.468 225.048ZM322.327 230.088C318.247 230.088 314.667 229.188 311.587 227.388C308.547 225.588 306.187 223.068 304.507 219.828C302.827 216.548 301.987 212.708 301.987 208.308C301.987 204.988 302.467 202.008 303.427 199.368C304.387 196.688 305.747 194.408 307.507 192.528C309.307 190.608 311.447 189.148 313.927 188.148C316.447 187.108 319.247 186.588 322.327 186.588C326.447 186.588 330.027 187.488 333.067 189.288C336.107 191.048 338.467 193.548 340.147 196.788C341.827 200.028 342.667 203.848 342.667 208.248C342.667 211.568 342.187 214.568 341.227 217.248C340.267 219.928 338.887 222.228 337.087 224.148C335.327 226.068 333.187 227.548 330.667 228.588C328.187 229.588 325.407 230.088 322.327 230.088ZM322.327 223.488C324.927 223.488 327.127 222.888 328.927 221.688C330.767 220.488 332.167 218.748 333.127 216.468C334.127 214.188 334.627 211.468 334.627 208.308C334.627 203.508 333.547 199.788 331.387 197.148C329.267 194.508 326.247 193.188 322.327 193.188C319.767 193.188 317.567 193.788 315.727 194.988C313.887 196.148 312.467 197.868 311.467 200.148C310.507 202.388 310.027 205.108 310.027 208.308C310.027 213.068 311.107 216.788 313.267 219.468C315.427 222.148 318.447 223.488 322.327 223.488ZM354.436 229.968C353.196 229.968 352.216 229.628 351.496 228.948C350.816 228.228 350.476 227.208 350.476 225.888V191.268C350.476 189.948 350.816 188.948 351.496 188.268C352.216 187.548 353.236 187.188 354.556 187.188H375.496C376.536 187.188 377.316 187.448 377.836 187.968C378.356 188.488 378.616 189.228 378.616 190.188C378.616 191.188 378.356 191.968 377.836 192.528C377.316 193.048 376.536 193.308 375.496 193.308H358.156V205.248H374.236C375.236 205.248 375.996 205.508 376.516 206.028C377.076 206.548 377.356 207.288 377.356 208.248C377.356 209.248 377.076 210.028 376.516 210.588C375.996 211.108 375.236 211.368 374.236 211.368H358.156V225.888C358.156 228.608 356.916 229.968 354.436 229.968ZM388.128 229.968C386.888 229.968 385.908 229.628 385.188 228.948C384.508 228.228 384.168 227.208 384.168 225.888V191.268C384.168 189.948 384.508 188.948 385.188 188.268C385.908 187.548 386.928 187.188 388.248 187.188H409.188C410.228 187.188 411.008 187.448 411.528 187.968C412.048 188.488 412.308 189.228 412.308 190.188C412.308 191.188 412.048 191.968 411.528 192.528C411.008 193.048 410.228 193.308 409.188 193.308H391.848V205.248H407.928C408.928 205.248 409.688 205.508 410.208 206.028C410.768 206.548 411.048 207.288 411.048 208.248C411.048 209.248 410.768 210.028 410.208 210.588C409.688 211.108 408.928 211.368 407.928 211.368H391.848V225.888C391.848 228.608 390.608 229.968 388.128 229.968Z" fill="#005CFF"/>
</g>
<defs>
<filter id="filter0_d_15_531" x="0" y="0" width="584.744" height="238.748" filterUnits="userSpaceOnUse" color-interpolation-filters="sRGB">
<feFlood flood-opacity="0" result="BackgroundImageFix"/>
<feColorMatrix in="SourceAlpha" type="matrix" values="0 0 0 0 0 0 0 0 0 0 0 0 0 0 0 0 0 0 127 0" result="hardAlpha"/>
<feOffset dy="4"/>
<feGaussianBlur stdDeviation="2"/>
<feComposite in2="hardAlpha" operator="out"/>
<feColorMatrix type="matrix" values="0 0 0 0 0 0 0 0 0 0 0 0 0 0 0 0 0 0 0.25 0"/>
<feBlend mode="normal" in2="BackgroundImageFix" result="effect1_dropShadow_15_531"/>
<feBlend mode="normal" in="SourceGraphic" in2="effect1_dropShadow_15_531" result="shape"/>
</filter>
</defs>
</svg>
